<?xml version="1.0" encoding="utf-8"?>
<!-- Generator: Adobe Illustrator 18.0.0, SVG Export Plug-In . SVG Version: 6.00 Build 0)  -->
<!DOCTYPE svg PUBLIC "-//W3C//DTD SVG 1.1//EN" "http://www.w3.org/Graphics/SVG/1.1/DTD/svg11.dtd">
<svg version="1.1" id="Layer_1" xmlns="http://www.w3.org/2000/svg" xmlns:xlink="http://www.w3.org/1999/xlink" x="0px" y="0px"
	 viewBox="0 0 16 16" enable-background="new 0 0 16 16" xml:space="preserve">
<g>
	<path fill="#666666" d="M6.1,8.9c-0.7,0.7-1.5,1.5-2.2,2.2C3.5,10.6,3,10.2,2.6,9.7C3.4,8.9,4.2,8,5.1,7.2c0.7-0.7,1-1.4,1-2.4
		c0-1,0-2.1,0-3.1c0.6,0,1.2,0,1.9,0c0,0.3,0,0.6,0,1c0,0.9,0,1.8,0,2.7C8,6.4,7.7,7.2,7.1,8c1.1-0.7,2.3-0.8,3.5-0.5
		c0.8,0.3,1.5,0.8,2,1.5c1,1.5,0.8,3.5-0.4,4.8c-1.2,1.3-3.2,1.6-4.7,0.7c-1-0.6-1.6-1.4-1.8-2.5C5.4,10.9,5.6,9.9,6.1,8.9z M9.4,9
		C8.2,9,7.2,10,7.2,11.1c0,1.2,0.9,2.1,2.1,2.1c1.2,0,2.2-1,2.2-2.1C11.5,10,10.5,9,9.4,9z"/>
</g>
</svg>
