<?xml version="1.0" encoding="utf-8"?>
<!-- Generator: Adobe Illustrator 18.0.0, SVG Export Plug-In . SVG Version: 6.00 Build 0)  -->
<!DOCTYPE svg PUBLIC "-//W3C//DTD SVG 1.1//EN" "http://www.w3.org/Graphics/SVG/1.1/DTD/svg11.dtd">
<svg version="1.1" id="Layer_1" xmlns="http://www.w3.org/2000/svg" xmlns:xlink="http://www.w3.org/1999/xlink" x="0px" y="0px"
	 viewBox="0 0 16 16" enable-background="new 0 0 16 16" xml:space="preserve">
<g>
	<path fill="#666666" d="M15.1,5.2c0,2,0,4,0,6c0,0.3-0.1,0.6-0.1,0.9c0,0.7-0.2,1.3-0.6,1.8c-0.6,0.9-1.5,1.2-2.5,1.3
		c-0.3,0-0.6,0.1-0.9,0.1c-2,0-3.9,0-5.9,0c-0.4,0-0.7-0.1-1.1-0.1c-0.6,0-1.2-0.2-1.7-0.5c-0.9-0.6-1.3-1.5-1.4-2.6
		c0-0.3-0.1-0.6-0.1-1c0-2,0-4,0-6C0.9,4.9,1,4.6,1,4.3c0-0.6,0.1-1.1,0.5-1.6c0.6-1,1.5-1.4,2.6-1.4c0.3,0,0.6-0.1,0.9-0.1
		c2,0,4,0,6,0c0.3,0,0.6,0.1,0.9,0.1c0.6,0,1.2,0.2,1.7,0.5c0.9,0.6,1.3,1.5,1.3,2.6C15,4.6,15.1,4.9,15.1,5.2z M9.8,4.5
		C9.9,4.2,9.9,4,10,3.8c0-0.3-0.1-0.4-0.3-0.4c-0.2,0-0.4,0-0.6,0C8.3,3.3,8.3,3.2,8.2,4c0,0.2-0.2,0.3-0.4,0.3
		C7.4,4.4,7,4.5,6.7,4.7C5.2,5.4,5,7.5,6.5,8.4C6.7,8.5,7,8.7,7.3,8.8C7.7,9,8.1,9.1,8.5,9.3C8.7,9.4,8.9,9.5,9,9.7
		c0.2,0.4-0.1,0.8-0.5,0.9c-0.8,0.2-1.6,0.1-2.3-0.4C6,10.1,5.7,9.8,5.5,9.9c-0.2,0-0.4,0.4-0.7,0.5c0,0,0,0,0,0
		c-0.2,0.2-0.2,0.4,0,0.6c0.3,0.2,0.7,0.5,1,0.7C6,11.9,6.2,11.9,6.4,12c0,0.2-0.1,0.5-0.1,0.7c0,0.3,0.1,0.4,0.4,0.5
		c0.3,0,0.6,0,0.8,0C7.9,13.2,8,13,8,12.7c0-0.1,0-0.2,0-0.2c0-0.3,0.2-0.3,0.4-0.4c0.6-0.1,1.1-0.3,1.5-0.6
		c1.1-0.8,1.3-2.7-0.1-3.5C9.5,7.8,9.2,7.6,8.8,7.5C8.4,7.3,8,7.2,7.7,7C7.5,6.9,7.3,6.7,7.3,6.5C7.2,6.1,7.5,5.8,8,5.8
		c0.7-0.1,1.4,0.1,2,0.5c0.5,0.4,0.5,0.4,1-0.1c0,0,0.1-0.1,0.1-0.1c0.4-0.4,0.4-0.6-0.1-0.9C10.7,4.9,10.3,4.7,9.8,4.5z"/>
</g>
</svg>
