<?xml version="1.0" encoding="utf-8"?>
<!-- Generator: Adobe Illustrator 18.0.0, SVG Export Plug-In . SVG Version: 6.00 Build 0)  -->
<!DOCTYPE svg PUBLIC "-//W3C//DTD SVG 1.1//EN" "http://www.w3.org/Graphics/SVG/1.1/DTD/svg11.dtd">
<svg version="1.1" id="Layer_1" xmlns="http://www.w3.org/2000/svg" xmlns:xlink="http://www.w3.org/1999/xlink" x="0px" y="0px"
	 viewBox="0 0 16 16" enable-background="new 0 0 16 16" xml:space="preserve">
<g>
	<path fill="#666666" d="M10.5,13.1c1.1-0.4,2.1-1,2.9-1.9c-0.2,0.1-0.4,0.2-0.5,0.4c-0.2,0.1-0.4,0.2-0.5,0.3
		c-0.5,0.3-1.1,0.5-1.7,0.7c-0.4,0.1-0.9,0.2-1.3,0.2c-0.6,0.1-1.2,0.1-1.7,0.1c-0.5,0-1.1-0.1-1.6-0.2c-0.5-0.1-1.1-0.3-1.6-0.5
		c-0.5-0.2-1-0.5-1.4-0.8c-0.1-0.1-0.2-0.1-0.2-0.2c0,0,0.1,0.1,0.1,0.1c0.3,0.3,0.5,0.5,0.9,0.8c0.4,0.3,0.8,0.6,1.3,0.8
		c0.2,0.1,0.3,0.1,0.5,0.2c0,0,0.1,0,0,0.1c-0.2,0.2-0.3,0.4-0.5,0.7c0,0-0.1,0-0.1,0c-0.2,0-0.4,0-0.6-0.1c-0.5-0.1-1-0.2-1.5-0.4
		c-0.6-0.2-1.1-0.5-1.6-0.9C1,12.2,0.8,12,0.6,11.8c0,0,0-0.1,0-0.1c0-0.3,0-0.5,0.1-0.8c0-0.3,0.1-0.6,0.1-0.9
		C0.8,9.6,0.9,9.2,1,8.8C1.1,8.4,1.2,8,1.3,7.6c0.1-0.5,0.3-1.1,0.5-1.6c0.1-0.3,0.3-0.7,0.4-1c0.1-0.2,0.2-0.4,0.4-0.6
		c0.1-0.1,0.1-0.1,0.2-0.2c0.5-0.3,0.9-0.6,1.5-0.8c0.5-0.2,1-0.3,1.6-0.4c0,0,0.1,0,0.1,0c0,0,0.1,0,0.1,0c0,0.1,0.1,0.2,0.1,0.2
		c0,0,0,0.1,0,0.1C5.9,3.5,5.6,3.5,5.4,3.6C4.8,3.8,4.2,4.1,3.6,4.5C3.4,4.6,3.3,4.8,3.1,5c0,0,0,0,0,0c0,0,0,0,0,0c0,0,0.1,0,0.1,0
		c0.4-0.2,0.7-0.4,1.1-0.5C4.7,4.3,5.2,4.1,5.6,4C6,3.9,6.4,3.8,6.8,3.8c0.2,0,0.4,0,0.7,0c0.2,0,0.4,0,0.6,0c0.3,0,0.5,0,0.8,0
		c0.3,0,0.6,0.1,0.9,0.1C10.1,3.9,10.6,4,11,4.2c0.5,0.2,1,0.4,1.4,0.6c0.2,0.1,0.3,0.2,0.5,0.2c0,0,0,0,0,0c0,0-0.1-0.1-0.1-0.1
		c-0.3-0.2-0.5-0.4-0.8-0.6c-0.4-0.3-0.9-0.5-1.3-0.7c-0.3-0.1-0.5-0.2-0.8-0.2c0,0-0.1,0,0-0.1c0-0.1,0.1-0.2,0.1-0.2
		c0,0,0,0,0.1,0c0.4,0,0.8,0.1,1.2,0.3c0.6,0.2,1.1,0.4,1.6,0.7c0.2,0.1,0.3,0.2,0.5,0.3c0.1,0.1,0.1,0.1,0.2,0.2
		C13.8,5,14,5.5,14.2,5.9c0.1,0.3,0.3,0.7,0.4,1c0.1,0.4,0.3,0.9,0.4,1.3c0.1,0.4,0.2,0.9,0.3,1.3c0.1,0.3,0.1,0.7,0.1,1
		c0,0.2,0,0.4,0.1,0.6c0,0.2,0,0.4,0,0.5c0,0,0,0.1,0,0.1c-0.2,0.3-0.5,0.5-0.8,0.7c-0.4,0.3-0.9,0.6-1.4,0.8
		c-0.5,0.2-1,0.3-1.6,0.4c-0.1,0-0.3,0-0.4,0c-0.1,0-0.1,0-0.1-0.1C10.8,13.5,10.7,13.3,10.5,13.1C10.5,13.1,10.5,13.1,10.5,13.1z
		 M11.4,9.1C11.4,9.1,11.4,9,11.4,9.1c0-0.1,0-0.2,0-0.2c-0.1-0.4-0.2-0.7-0.6-1c-0.5-0.3-1.1-0.2-1.4,0.2C9.1,8.5,9,8.9,9,9.3
		c0,0.4,0.2,0.7,0.5,0.9c0.2,0.2,0.5,0.3,0.8,0.3c0.3,0,0.5-0.1,0.7-0.3C11.2,9.8,11.4,9.5,11.4,9.1z M7,9.1C7,9,7,8.9,6.9,8.7
		C6.8,8.3,6.6,8,6.3,7.9C5.9,7.7,5.4,7.8,5.1,8.1C4.8,8.3,4.7,8.6,4.7,8.9c0,0.4,0,0.8,0.3,1.1c0.2,0.3,0.6,0.5,0.9,0.4
		c0.3,0,0.5-0.1,0.7-0.3C6.9,9.8,7,9.5,7,9.1z"/>
</g>
</svg>
