<?xml version="1.0" encoding="utf-8"?>
<!-- Generator: Adobe Illustrator 18.0.0, SVG Export Plug-In . SVG Version: 6.00 Build 0)  -->
<!DOCTYPE svg PUBLIC "-//W3C//DTD SVG 1.1//EN" "http://www.w3.org/Graphics/SVG/1.1/DTD/svg11.dtd">
<svg version="1.1" id="Layer_1" xmlns="http://www.w3.org/2000/svg" xmlns:xlink="http://www.w3.org/1999/xlink" x="0px" y="0px"
	 viewBox="0 0 16 16" enable-background="new 0 0 16 16" xml:space="preserve">
<g>
	<defs>
		<rect id="SVGID_1_" x="0.6" y="2.3" width="14.5" height="12.2"/>
	</defs>
	<clipPath id="SVGID_2_">
		<use xlink:href="#SVGID_1_"  overflow="visible"/>
	</clipPath>
	<g clip-path="url(#SVGID_2_)">
		<path fill="#666666" d="M15.1,10.5c0,0.1,0,0.1,0,0.2C15,10.9,14.8,11,14.5,11c-0.9,0-1.8,0-2.7,0c-0.1,0-0.1,0-0.1,0.1
			c0,0.9,0,1.8,0,2.8c0,0.3-0.2,0.5-0.5,0.5c-0.6,0-1.2,0-1.8,0c-0.3,0-0.5-0.2-0.5-0.5c0-0.9,0-1.9,0-2.8c0-0.1,0-0.1,0.1-0.1
			c0.2,0,0.5,0,0.7,0c0.3,0,0.6-0.2,0.6-0.5c0-0.1,0-0.2-0.1-0.4C9.8,9.5,9.4,8.7,9,8C8.7,7.4,8.3,6.7,8,6.1c0-0.1,0-0.1,0-0.2
			c0.6-1.1,1.2-2.2,1.7-3.3c0.1-0.2,0.3-0.3,0.5-0.3c0,0,0,0,0,0c0,0,0.1,0,0.1,0c0,0,0,0,0,0c0.2,0,0.4,0.1,0.5,0.3
			c0.2,0.3,0.3,0.6,0.5,0.9c0.4,0.7,0.8,1.4,1.2,2.1c0.4,0.7,0.8,1.4,1.2,2.1c0.3,0.5,0.6,1.1,0.9,1.6C14.8,9.7,15,10.1,15.1,10.5
			C15.1,10.5,15.1,10.5,15.1,10.5z"/>
		<path fill="#666666" d="M5.5,2.3c0.1,0,0.2,0.1,0.3,0.1C5.9,2.5,6,2.6,6.1,2.7C6.4,3.3,6.7,3.9,7,4.5C7.2,5,7.5,5.5,7.7,5.9
			c0,0,0,0.1,0,0.1c-0.5,0.9-1,1.8-1.5,2.7c-0.3,0.5-0.6,1-0.8,1.5c-0.1,0.3,0,0.6,0.3,0.8C5.8,11,5.9,11.1,6,11.1
			c0.2,0,0.4,0,0.7,0c0.1,0,0.1,0,0.1,0.1c0,0.9,0,1.9,0,2.8c0,0.3-0.2,0.5-0.5,0.5c-0.5,0-1.1,0-1.6,0c-0.3,0-0.6-0.2-0.6-0.6
			c0-0.9,0-1.8,0-2.8c0,0,0-0.1,0-0.1c0,0-0.1,0-0.1,0c-0.9,0-1.8,0-2.7,0C1,11,0.9,11,0.7,10.8c-0.1-0.2-0.1-0.4,0-0.6
			c0.2-0.4,0.4-0.7,0.6-1.1c0.4-0.7,0.7-1.3,1.1-2c0.4-0.8,0.8-1.5,1.3-2.3c0.3-0.6,0.6-1.2,1-1.8C4.7,3,4.8,2.8,4.9,2.6
			C5,2.5,5.1,2.3,5.3,2.3C5.4,2.3,5.4,2.3,5.5,2.3C5.4,2.3,5.5,2.3,5.5,2.3z"/>
	</g>
</g>
</svg>
