<?xml version="1.0" encoding="utf-8"?>
<!-- Generator: Adobe Illustrator 18.0.0, SVG Export Plug-In . SVG Version: 6.00 Build 0)  -->
<!DOCTYPE svg PUBLIC "-//W3C//DTD SVG 1.1//EN" "http://www.w3.org/Graphics/SVG/1.1/DTD/svg11.dtd">
<svg version="1.1" id="Layer_1" xmlns="http://www.w3.org/2000/svg" xmlns:xlink="http://www.w3.org/1999/xlink" x="0px" y="0px"
	 viewBox="0 0 16 16" enable-background="new 0 0 16 16" xml:space="preserve">
<g>
	<path fill="#666666" d="M11.5,4.6L10.9,9c0,0.3,0,0.6,0,0.8c0,0.3,0.1,0.4,0.4,0.4c0.5,0,0.9-0.3,1.4-0.9c0.4-0.6,0.7-1.4,0.7-2.3
		c0-1.3-0.5-2.4-1.4-3.3S9.7,2.5,8.3,2.5C6.8,2.5,5.5,3,4.4,4.1c-1,1.1-1.6,2.4-1.6,4c0,1.5,0.5,2.7,1.5,3.8c1,1.1,2.3,1.6,4.1,1.6
		c1.4,0,2.8-0.4,4.2-1.1l0.7,1.6c-1.6,0.8-3.2,1.2-4.9,1.2c-2.3,0-4.2-0.7-5.5-2.1s-2-3.1-2-5c0-2,0.7-3.7,2.2-5.1s3.2-2.1,5.2-2.1
		c1.9,0,3.6,0.6,4.9,1.8s2,2.7,2,4.4c0,1.3-0.4,2.5-1.2,3.4c-0.8,1-1.7,1.4-2.8,1.4c-0.7,0-1.3-0.3-1.7-0.9
		c-0.5,0.6-1.1,0.9-1.8,0.9c-0.8,0-1.5-0.3-2.1-1c-0.6-0.7-0.9-1.6-0.9-2.7c0-1.1,0.3-2.1,1-2.8C6.2,4.8,7,4.4,7.9,4.4
		C8.5,4.4,9,4.6,9.5,5l0.1-0.4H11.5z M7.6,10c0.5,0,0.9-0.2,1.2-0.7c0.3-0.4,0.5-1,0.5-1.5c0-0.5-0.1-0.8-0.4-1.1
		C8.7,6.5,8.3,6.3,8,6.3c-0.4,0-0.7,0.2-1,0.6C6.7,7.2,6.6,7.7,6.6,8.3c0,0.5,0.1,0.9,0.3,1.2C7.1,9.9,7.3,10,7.6,10z"/>
</g>
</svg>
