<?xml version="1.0" encoding="utf-8"?>
<!-- Generator: Adobe Illustrator 18.0.0, SVG Export Plug-In . SVG Version: 6.00 Build 0)  -->
<!DOCTYPE svg PUBLIC "-//W3C//DTD SVG 1.1//EN" "http://www.w3.org/Graphics/SVG/1.1/DTD/svg11.dtd">
<svg version="1.1" id="Layer_1" xmlns="http://www.w3.org/2000/svg" xmlns:xlink="http://www.w3.org/1999/xlink" x="0px" y="0px"
	 viewBox="0 0 16 16" enable-background="new 0 0 16 16" xml:space="preserve">
<g>
	<path fill="#666666" d="M1.1,8.2c0-1.8,0-3.6,0-5.4c0-1,0.5-1.5,1.5-1.5c3.6,0,7.3,0,10.9,0c1,0,1.5,0.5,1.5,1.5
		c0,3.6,0,7.3,0,10.9c0,1-0.6,1.5-1.5,1.5c-3.6,0-7.3,0-10.9,0c-0.9,0-1.5-0.6-1.5-1.5C1.1,11.8,1.1,10,1.1,8.2z M6.7,6.8
		c0-0.9,0-1.9,0-2.8c-1,0-1.9,0-2.8,0c0,0.9,0,1.8,0,2.8C4.8,6.8,5.8,6.8,6.7,6.8c0,0.4,0,0.9,0,1.4c-0.5,0-0.9,0-1.4,0
		c0,1.4,0,2.8,0,4.2c0.5,0,0.9,0,1.4,0c0-0.5,0-0.9,0-1.4c0.9,0,1.8,0,2.8,0c0,0.5,0,0.9,0,1.4c0.5,0,0.9,0,1.4,0c0-1.4,0-2.8,0-4.2
		c-0.5,0-0.9,0-1.4,0c0-0.5,0-0.9,0-1.3c0.9,0,1.9,0,2.8,0c0-1,0-1.9,0-2.8c-0.9,0-1.8,0-2.8,0c0,1,0,1.9,0,2.8
		C8.5,6.8,7.6,6.8,6.7,6.8z"/>
</g>
</svg>
