<?xml version="1.0" encoding="utf-8"?>
<!-- Generator: Adobe Illustrator 18.0.0, SVG Export Plug-In . SVG Version: 6.00 Build 0)  -->
<!DOCTYPE svg PUBLIC "-//W3C//DTD SVG 1.1//EN" "http://www.w3.org/Graphics/SVG/1.1/DTD/svg11.dtd">
<svg version="1.1" id="Layer_1" xmlns="http://www.w3.org/2000/svg" xmlns:xlink="http://www.w3.org/1999/xlink" x="0px" y="0px"
	 viewBox="0 0 16 16" enable-background="new 0 0 16 16" xml:space="preserve">
<g>
	<path fill="#666666" d="M4,4.7c0,3.5,0,7,0,10.6c-0.3,0-0.5,0-0.8,0c0,0,0-0.1,0-0.1c0-3.8,0-7.5,0-11.3c0-0.9,0.4-1.6,1.2-2.1
		C5,1.4,5.6,1.1,6.3,1.2c0.5,0,1,0.2,1.3,0.7C8,2.4,8,3,7.7,3.5C7.5,4.1,7,4.4,6.4,4.7C5.6,5,4.9,5,4,4.7C4.1,4.7,4.1,4.7,4,4.7
		C4,4.7,4,4.7,4,4.7z"/>
	<path fill="#666666" d="M12.9,12c0.2,0.1,0.2,0.1,0.1,0.3c-0.2,0.7-0.4,1.4-0.8,2c-0.3,0.4-0.6,0.8-1,0.9c-0.5,0.2-1,0-1.4-0.3
		c-0.6-0.4-0.9-1-1.1-1.6c-0.4-0.9-0.5-1.8-0.7-2.7C7.8,9.5,7.8,8.4,7.8,7.3C7.9,6,8.1,4.7,8.6,3.4c0.2-0.6,0.5-1.1,1-1.5
		c0.7-0.6,1.5-0.6,2.2-0.1C12,1.9,12.1,2,12.2,2.1c0.1,0.1,0.2,0.1,0.2-0.1c0-0.2,0-0.3,0-0.5c0-0.1,0-0.1,0.1-0.1
		c0.1,0,0.1,0,0.1,0.1c0.1,1.3,0.1,2.6,0.2,3.9c0,0.1,0,0.1,0,0.2c-0.1,0-0.2,0-0.3,0c-0.1-0.4-0.1-0.7-0.2-1.1
		c-0.1-0.7-0.2-1.3-0.6-1.9c-0.3-0.5-0.9-0.7-1.4-0.5C10.2,2.2,10,2.4,9.9,2.5C9.6,2.9,9.4,3.3,9.3,3.8C9,4.5,8.9,5.2,8.9,6
		C8.7,7.3,8.7,8.6,8.8,9.9c0.1,1,0.2,2,0.5,2.9c0.2,0.5,0.4,1,0.9,1.4c0.5,0.4,1.2,0.4,1.6-0.1c0.3-0.3,0.5-0.7,0.7-1.1
		C12.6,12.7,12.7,12.4,12.9,12z"/>
</g>
</svg>
