<?xml version="1.0" encoding="utf-8"?>
<!-- Generator: Adobe Illustrator 18.0.0, SVG Export Plug-In . SVG Version: 6.00 Build 0)  -->
<!DOCTYPE svg PUBLIC "-//W3C//DTD SVG 1.1//EN" "http://www.w3.org/Graphics/SVG/1.1/DTD/svg11.dtd">
<svg version="1.1" id="Layer_1" xmlns="http://www.w3.org/2000/svg" xmlns:xlink="http://www.w3.org/1999/xlink" x="0px" y="0px"
	 viewBox="0 0 16 16" enable-background="new 0 0 16 16" xml:space="preserve">
<g>
	<path fill="#666666" d="M13.2,14c-0.2,0-0.3,0-0.5,0.1c-0.9,0.1-1.9,0.2-2.8,0.4c-0.2,0-0.3,0.1-0.5,0.1C9,14.5,9,14.5,8.8,14.2
		c-0.6-1-1.1-2.1-1.7-3.1C6.7,10.4,6.4,9.7,6,8.9C5.9,8.7,5.7,8.6,5.5,8.6C5.2,8.7,5,8.7,4.8,8.8c-0.2,0-0.2,0.2-0.2,0.3
		c0.3,1,0.6,1.9,0.9,2.9c0.1,0.3,0.2,0.6,0.3,1c0.1,0.3,0,0.4-0.3,0.4c-0.3,0-0.5-0.1-0.8-0.1c-0.4-0.1-0.8-0.2-1.2-0.2
		c-0.3,0-0.4-0.2-0.4-0.4c0-0.3-0.1-0.7-0.1-1c-0.1-1.1-0.2-2.2-0.4-3.3C2.6,7.4,2.5,6.6,2.5,5.8C2.4,5,2.3,4.2,2.2,3.4
		c0-0.2,0-0.4,0-0.5c0-0.2,0.1-0.3,0.2-0.3C3,2.4,3.6,2.3,4.2,2.2c1.1-0.2,2.2-0.3,3.3-0.4c0.8-0.1,1.6-0.2,2.3-0.2
		c0.7,0,1.3-0.1,2-0.1c0.2,0,0.2,0.1,0.3,0.2c0.1,0.4,0.3,0.7,0.4,1.1c0.4,1.4,0.8,2.8,1.2,4.1c0,0.2,0,0.3-0.1,0.5
		c-0.3,0.3-0.6,0.6-0.9,0.9c-0.1,0.1-0.2,0.1-0.3,0.1c-1.2,0-2.4,0-3.6,0c-0.4,0-0.8,0-1.2,0c0,0,0,0,0,0.1c0,0.1,0.1,0.2,0.1,0.2
		c0.8,0.7,1.6,1.5,2.4,2.2c1,0.9,2,1.9,2.9,2.8C13,13.8,13.1,13.9,13.2,14z M8.5,5.5C8.5,5.5,8.5,5.5,8.5,5.5c0-0.2,0-0.5,0-0.7
		c0-0.3-0.1-0.4-0.4-0.4c-0.3-0.1-0.6-0.1-1-0.1C6.4,4.2,5.7,4.2,5,4.1c-0.2,0-0.3,0.1-0.3,0.3c0,0.4,0.1,0.8,0.1,1.3
		c0,0.3,0.1,0.7,0.1,1C5,6.9,5,6.9,5.3,6.9c0.2,0,0.4-0.1,0.6-0.1c0.5-0.1,1-0.2,1.5-0.3c0.3,0,0.5-0.1,0.8-0.1
		c0.3,0,0.3-0.1,0.3-0.4C8.5,5.8,8.5,5.7,8.5,5.5z"/>
</g>
</svg>
