<?xml version="1.0" encoding="utf-8"?>
<!-- Generator: Adobe Illustrator 18.0.0, SVG Export Plug-In . SVG Version: 6.00 Build 0)  -->
<!DOCTYPE svg PUBLIC "-//W3C//DTD SVG 1.1//EN" "http://www.w3.org/Graphics/SVG/1.1/DTD/svg11.dtd">
<svg version="1.1" id="Layer_1" xmlns="http://www.w3.org/2000/svg" xmlns:xlink="http://www.w3.org/1999/xlink" x="0px" y="0px"
	 viewBox="0 0 16 16" enable-background="new 0 0 16 16" xml:space="preserve">
<g>
	<path fill="#666666" d="M11.5,15.7c-0.9,0-1.6,0-2.4,0c-0.2-1.3,0-2.5-0.1-3.8c-2-0.2-4,0-6.1-0.1c0-1.7,0-3.3,0-4.9
		C2.6,6.7,2.4,6.6,2.1,6.5c0-0.2,0-0.4,0-0.6c1.3,0,2.6,0,4,0c0,0.2,0,0.4,0.1,0.6C5.9,6.6,5.6,6.7,5.4,6.8c0,0.7,0,1.3,0,2.1
		c2,0.1,4,0,6.1,0C11.6,11.2,11.5,13.4,11.5,15.7z"/>
	<path fill="#666666" d="M2.1,2.7C2.1,2.4,2,2.2,2,2C1.7,1.9,1.5,1.8,1.2,1.7c0-0.2,0-0.4,0-0.6C1.5,1.1,1.7,1,1.9,1
		C2,0.7,2.1,0.5,2.1,0.3c0.4,0,0.9,0,1.4,0c0.1,0.2,0.2,0.4,0.2,0.6c0.4,0.3,0.8,0.7,1.3,0.9c0.4,0.2,1,0.1,1.6,0.1
		C6.7,1.9,6.8,2.2,7,2.5c0.2-0.1,0.5-0.1,0.6-0.2c0.6-0.5,0.6-0.6,1.1,0.1c0.4,0,0.8,0.1,1.2,0.1c0.4,0.5,0.7,1,1.2,1.6
		c0,0,0.3,0.1,0.5,0.2c0,0.5,0.1,0.9,0.1,1.4c0.2,0.1,0.4,0.2,0.7,0.3c0,0.2,0,0.4,0,0.6c-0.2,0.1-0.4,0.2-0.7,0.2
		c0,0.5-0.1,0.9-0.1,1.5C10.7,8.3,10,8.4,9.1,8.1C9.1,7.7,9,7.3,9,6.8C8.5,6.5,8.5,6.5,8.2,6C8.5,5.9,8.7,5.8,9,5.6
		c0-0.1,0-0.3,0-0.5C8.8,5.1,8.6,5,8.3,4.9C8.3,4.7,8.2,4.4,8.1,4.2C7.7,4.2,7.3,4.3,7,4.4C6.8,4,6.7,3.8,6.5,3.4
		C6.2,3.8,6.1,4,5.9,4.3c-0.7,0.3-0.7-0.4-1-0.7c-0.4,0-0.8-0.1-1.2-0.1c0-0.5-0.1-1-0.1-1.5C3.4,2,3.2,1.9,3,1.9
		C2.9,2.2,2.8,2.4,2.7,2.7C2.5,2.7,2.3,2.7,2.1,2.7z"/>
	<path fill="#666666" d="M12.4,15.7c0-1.1,0-2.1,0-3.2c0.2,0,0.4-0.1,0.6-0.1c0.1,0.3,0.2,0.5,0.3,0.7c0.2,0.1,0.4,0.1,0.6,0.2
		c0.1,0.2,0.1,0.4,0.2,0.5c0.3,0.2,0.6,0.4,0.8,0.6c0.2,0.2,0.5,0.4,0.7,0.6c0.1,0.4,0,0.7-0.5,0.7C14.2,15.7,13.4,15.7,12.4,15.7z"
		/>
	<path fill="#666666" d="M4.4,12.4c0.1,0.3,0.2,0.5,0.3,0.7c0.2,0.1,0.4,0.2,0.7,0.2c0,0.5,0,0.9,0,1.4c-0.2,0.1-0.4,0.2-0.7,0.3
		c-0.1,0.2-0.1,0.4-0.2,0.7c-0.2,0-0.4,0.1-0.5,0c-0.2-0.1-0.3-0.4-0.3-0.7c-0.2-0.1-0.4-0.1-0.7-0.2c0-0.5,0-0.9,0-1.4
		c0.2-0.1,0.4-0.1,0.6-0.2c0.1-0.2,0.1-0.5,0.2-0.6C3.8,12.4,4.1,12.4,4.4,12.4z"/>
	<path fill="#666666" d="M6.9,12.5c0.8-0.2,0.6,0.4,0.8,0.6c0.2,0.1,0.5,0.2,0.7,0.3c0,0.4,0,0.8,0,1.3C8.2,14.8,8,14.9,7.7,15
		c-0.1,0.2-0.2,0.4-0.2,0.7c-0.2,0-0.3,0-0.5,0c-0.1-0.2-0.2-0.5-0.3-0.7c-0.2-0.1-0.4-0.2-0.7-0.3c0-0.4,0-0.9,0-1.3
		c0.2-0.1,0.5-0.2,0.7-0.3C6.8,12.9,6.8,12.7,6.9,12.5z"/>
	<path fill="#666666" d="M13.1,11.7c-0.2,0-0.4,0-0.7,0c-0.2-0.9-0.1-1.8-0.1-2.7c0.2,0,0.5-0.1,0.7-0.1
		C13.1,9.9,13.1,10.7,13.1,11.7z"/>
	<path fill="#666666" d="M0.4,2.6c0.4,0,0.6,0,1,0c0,0.3,0.1,0.5,0.1,0.9c-0.3,0-0.6,0.1-0.9,0.1C0.4,3.2,0.4,2.9,0.4,2.6z"/>
</g>
</svg>
