<?xml version="1.0" encoding="utf-8"?>
<!-- Generator: Adobe Illustrator 18.0.0, SVG Export Plug-In . SVG Version: 6.00 Build 0)  -->
<!DOCTYPE svg PUBLIC "-//W3C//DTD SVG 1.1//EN" "http://www.w3.org/Graphics/SVG/1.1/DTD/svg11.dtd">
<svg version="1.1" id="Layer_1" xmlns="http://www.w3.org/2000/svg" xmlns:xlink="http://www.w3.org/1999/xlink" x="0px" y="0px"
	 viewBox="0 0 362 161" enable-background="new 0 0 362 161" xml:space="preserve">
<g>
	<path fill="#FFFFFF" d="M38.6,64.8c-2.1-0.6-4.1-1.3-6.1-1.7c-3.1-0.7-6.4-0.7-9.6,0c-2.6,0.7-5.2,1.7-7.7,3.1
		c-4.3,2.6-7.7,6-10.2,10.1c-1.7,2.7-2.8,5.5-3.7,8.6c-1.1,4-1.6,8.2-1.1,12.3c0.4,3.7,1.3,7.2,2.7,10.6c1.4,3.1,3.1,6,5.2,8.4
		c2.8,3.1,6.1,5.5,9.9,7.2c3.4,1.4,6.8,2,10.5,2c25.1,0,50.3,0,75.4,0c2.6,0,4-1.8,4-4c0-29.6,0-59.1,0-88.7c0-3.5,0-7.1,0.1-10.5
		c0-1.8-0.6-3.1-2.3-3.8c-2.4-0.9-4.8-1.8-7.4-2.6c-4-1.3-8.1-1.6-12.2-1.4c-3.1,0.1-6.4,0.6-9.5,1.3c-3.8,1-7.5,2.4-11.1,4.4
		c-3,1.6-5.7,3.5-8.2,5.8c-3,2.6-5.5,5.4-7.8,8.5c-1.4,2-2.7,4-3.8,6c-1,1.8-2,3.8-2.8,5.7c-0.7,1.4-1.3,3-1.7,4.5
		c-0.9,3.4-1.7,6.9-2.4,10.3C38.7,62.4,38.7,63.7,38.6,64.8z"/>
</g>
<rect x="115.8" y="31.1" fill="none" width="221.6" height="93.7"/>
<text transform="matrix(1 0 0 1 115.75 108.8548)" fill="#FFFFFF" font-family="'Bahnschrift'" font-size="109.5282">BSC</text>
</svg>
